<svg xmlns="http://www.w3.org/2000/svg" width="512" height="512" viewBox="0 0 512 512"><rect width="512" height="512" fill="#F7F2EA"/><path d="M207.02,137.74 A128 128 0 0 1 304.98,137.74 L285.85,183.94 A78 78 0 0 0 226.15,183.94 Z" fill="#977d33" stroke="#F7F2EA" stroke-width="2.5"/><path d="M186.35,87.85 A182 182 0 0 1 325.65,87.85 L304.98,137.74 A128 128 0 0 0 207.02,137.74 Z" fill="#dcb746" stroke="#F7F2EA" stroke-width="2.5"/><path d="M165.69,37.96 A236 236 0 0 1 346.31,37.96 L325.65,87.85 A182 182 0 0 0 186.35,87.85 Z" fill="#f9e5a9" stroke="#F7F2EA" stroke-width="2.5"/><path d="M304.98,137.74 A128 128 0 0 1 374.26,207.02 L328.06,226.15 A78 78 0 0 0 285.85,183.94 Z" fill="#657f3b" stroke="#F7F2EA" stroke-width="2.5"/><path d="M325.65,87.85 A182 182 0 0 1 424.15,186.35 L374.26,207.02 A128 128 0 0 0 304.98,137.74 Z" fill="#8fba53" stroke="#F7F2EA" stroke-width="2.5"/><path d="M346.31,37.96 A236 236 0 0 1 474.04,165.69 L424.15,186.35 A182 182 0 0 0 325.65,87.85 Z" fill="#cfe7b0" stroke="#F7F2EA" stroke-width="2.5"/><path d="M374.26,207.02 A128 128 0 0 1 374.26,304.98 L328.06,285.85 A78 78 0 0 0 328.06,226.15 Z" fill="#346a45" stroke="#F7F2EA" stroke-width="2.5"/><path d="M424.15,186.35 A182 182 0 0 1 424.15,325.65 L374.26,304.98 A128 128 0 0 0 374.26,207.02 Z" fill="#429962" stroke="#F7F2EA" stroke-width="2.5"/><path d="M474.04,165.69 A236 236 0 0 1 474.04,346.31 L424.15,325.65 A182 182 0 0 0 424.15,186.35 Z" fill="#a6d5b8" stroke="#F7F2EA" stroke-width="2.5"/><path d="M374.26,304.98 A128 128 0 0 1 304.98,374.26 L285.85,328.06 A78 78 0 0 0 328.06,285.85 Z" fill="#347285" stroke="#F7F2EA" stroke-width="2.5"/><path d="M424.15,325.65 A182 182 0 0 1 325.65,424.15 L304.98,374.26 A128 128 0 0 0 374.26,304.98 Z" fill="#42a6c5" stroke="#F7F2EA" stroke-width="2.5"/><path d="M474.04,346.31 A236 236 0 0 1 346.31,474.04 L325.65,424.15 A182 182 0 0 0 424.15,325.65 Z" fill="#a6dced" stroke="#F7F2EA" stroke-width="2.5"/><path d="M304.98,374.26 A128 128 0 0 1 207.02,374.26 L226.15,328.06 A78 78 0 0 0 285.85,328.06 Z" fill="#405085" stroke="#F7F2EA" stroke-width="2.5"/><path d="M325.65,424.15 A182 182 0 0 1 186.35,424.15 L207.02,374.26 A128 128 0 0 0 304.98,374.26 Z" fill="#5572c6" stroke="#F7F2EA" stroke-width="2.5"/><path d="M346.31,474.04 A236 236 0 0 1 165.69,474.04 L186.35,424.15 A182 182 0 0 0 325.65,424.15 Z" fill="#b1c0ed" stroke="#F7F2EA" stroke-width="2.5"/><path d="M207.02,374.26 A128 128 0 0 1 137.74,304.98 L183.94,285.85 A78 78 0 0 0 226.15,328.06 Z" fill="#64497a" stroke="#F7F2EA" stroke-width="2.5"/><path d="M186.35,424.15 A182 182 0 0 1 87.85,325.65 L137.74,304.98 A128 128 0 0 0 207.02,374.26 Z" fill="#8d66b5" stroke="#F7F2EA" stroke-width="2.5"/><path d="M165.69,474.04 A236 236 0 0 1 37.96,346.31 L87.85,325.65 A182 182 0 0 0 186.35,424.15 Z" fill="#cfbae4" stroke="#F7F2EA" stroke-width="2.5"/><path d="M137.74,304.98 A128 128 0 0 1 137.74,207.02 L183.94,226.15 A78 78 0 0 0 183.94,285.85 Z" fill="#8e3a33" stroke="#F7F2EA" stroke-width="2.5"/><path d="M87.85,325.65 A182 182 0 0 1 87.85,186.35 L137.74,207.02 A128 128 0 0 0 137.74,304.98 Z" fill="#ce4f46" stroke="#F7F2EA" stroke-width="2.5"/><path d="M37.96,346.31 A236 236 0 0 1 37.96,165.69 L87.85,186.35 A182 182 0 0 0 87.85,325.65 Z" fill="#f1ada9" stroke="#F7F2EA" stroke-width="2.5"/><path d="M137.74,207.02 A128 128 0 0 1 207.02,137.74 L226.15,183.94 A78 78 0 0 0 183.94,226.15 Z" fill="#965d21" stroke="#F7F2EA" stroke-width="2.5"/><path d="M87.85,186.35 A182 182 0 0 1 186.35,87.85 L207.02,137.74 A128 128 0 0 0 137.74,207.02 Z" fill="#db852b" stroke="#F7F2EA" stroke-width="2.5"/><path d="M37.96,165.69 A236 236 0 0 1 165.69,37.96 L186.35,87.85 A182 182 0 0 0 87.85,186.35 Z" fill="#f8cb9b" stroke="#F7F2EA" stroke-width="2.5"/><circle cx="256" cy="256" r="76" fill="#FFFFFF"/></svg>